<?xml version="1.0" encoding="UTF-8" standalone="no"?>
<!-- Created with Inkscape (http://www.inkscape.org/) -->

<svg
   xmlns:dc="http://purl.org/dc/elements/1.1/"
   xmlns:cc="http://creativecommons.org/ns#"
   xmlns:rdf="http://www.w3.org/1999/02/22-rdf-syntax-ns#"
   xmlns:svg="http://www.w3.org/2000/svg"
   xmlns="http://www.w3.org/2000/svg"
   xmlns:sodipodi="http://sodipodi.sourceforge.net/DTD/sodipodi-0.dtd"
   xmlns:inkscape="http://www.inkscape.org/namespaces/inkscape"
   version="1.1"
   id="svg3713"
   xml:space="preserve"
   width="793.59998"
   height="1122.4"
   viewBox="0 0 793.59998 1122.4"
   sodipodi:docname="Balkendiagramm.svg"
   inkscape:version="0.92.3 (2405546, 2018-03-11)"><metadata
     id="metadata3719"><rdf:RDF><cc:Work
         rdf:about=""><dc:format>image/svg+xml</dc:format><dc:type
           rdf:resource="http://purl.org/dc/dcmitype/StillImage" /><dc:title></dc:title></cc:Work></rdf:RDF></metadata><defs
     id="defs3717"><clipPath
       clipPathUnits="userSpaceOnUse"
       id="clipPath3739"><path
         d="m 50.6,278.8 h 494 v 244 h -494 z"
         id="path3737"
         inkscape:connector-curvature="0"
         style="clip-rule:evenodd" /></clipPath><clipPath
       clipPathUnits="userSpaceOnUse"
       id="clipPath3751"><path
         d="m 50.6,278.8 h 494 v 244 h -494 z"
         id="path3749"
         inkscape:connector-curvature="0"
         style="clip-rule:evenodd" /></clipPath><clipPath
       clipPathUnits="userSpaceOnUse"
       id="clipPath3763"><path
         d="m 50.6,278.8 h 494 v 244 h -494 z"
         id="path3761"
         inkscape:connector-curvature="0"
         style="clip-rule:evenodd" /></clipPath><clipPath
       clipPathUnits="userSpaceOnUse"
       id="clipPath3775"><path
         d="m 50.6,278.8 h 494 v 244 h -494 z"
         id="path3773"
         inkscape:connector-curvature="0"
         style="clip-rule:evenodd" /></clipPath><clipPath
       clipPathUnits="userSpaceOnUse"
       id="clipPath3787"><path
         d="m 50.6,278.8 h 494 v 244 h -494 z"
         id="path3785"
         inkscape:connector-curvature="0"
         style="clip-rule:evenodd" /></clipPath><clipPath
       clipPathUnits="userSpaceOnUse"
       id="clipPath3799"><path
         d="m 50.6,278.8 h 494 v 244 h -494 z"
         id="path3797"
         inkscape:connector-curvature="0"
         style="clip-rule:evenodd" /></clipPath><clipPath
       clipPathUnits="userSpaceOnUse"
       id="clipPath3811"><path
         d="m 50.6,278.8 h 494 v 244 h -494 z"
         id="path3809"
         inkscape:connector-curvature="0"
         style="clip-rule:evenodd" /></clipPath><clipPath
       clipPathUnits="userSpaceOnUse"
       id="clipPath3823"><path
         d="m 50.6,278.8 h 494 v 244 h -494 z"
         id="path3821"
         inkscape:connector-curvature="0"
         style="clip-rule:evenodd" /></clipPath><clipPath
       clipPathUnits="userSpaceOnUse"
       id="clipPath3835"><path
         d="m 50.6,278.8 h 494 v 244 h -494 z"
         id="path3833"
         inkscape:connector-curvature="0"
         style="clip-rule:evenodd" /></clipPath><clipPath
       clipPathUnits="userSpaceOnUse"
       id="clipPath3847"><path
         d="m 50.6,278.8 h 494 v 244 h -494 z"
         id="path3845"
         inkscape:connector-curvature="0"
         style="clip-rule:evenodd" /></clipPath><clipPath
       clipPathUnits="userSpaceOnUse"
       id="clipPath3859"><path
         d="m 50.6,278.8 h 494 v 244 h -494 z"
         id="path3857"
         inkscape:connector-curvature="0"
         style="clip-rule:evenodd" /></clipPath><clipPath
       clipPathUnits="userSpaceOnUse"
       id="clipPath3871"><path
         d="m 50.6,278.8 h 494 v 244 h -494 z"
         id="path3869"
         inkscape:connector-curvature="0"
         style="clip-rule:evenodd" /></clipPath><clipPath
       clipPathUnits="userSpaceOnUse"
       id="clipPath3883"><path
         d="m 50.6,278.8 h 494 v 244 h -494 z"
         id="path3881"
         inkscape:connector-curvature="0"
         style="clip-rule:evenodd" /></clipPath><clipPath
       clipPathUnits="userSpaceOnUse"
       id="clipPath3895"><path
         d="m 50.6,278.8 h 494 v 244 h -494 z"
         id="path3893"
         inkscape:connector-curvature="0"
         style="clip-rule:evenodd" /></clipPath><clipPath
       clipPathUnits="userSpaceOnUse"
       id="clipPath3907"><path
         d="m 50.6,278.8 h 494 v 244 h -494 z"
         id="path3905"
         inkscape:connector-curvature="0"
         style="clip-rule:evenodd" /></clipPath><clipPath
       clipPathUnits="userSpaceOnUse"
       id="clipPath3919"><path
         d="m 50.6,278.8 h 494 v 244 h -494 z"
         id="path3917"
         inkscape:connector-curvature="0"
         style="clip-rule:evenodd" /></clipPath><clipPath
       clipPathUnits="userSpaceOnUse"
       id="clipPath3931"><path
         d="m 50.6,278.8 h 494 v 244 h -494 z"
         id="path3929"
         inkscape:connector-curvature="0"
         style="clip-rule:evenodd" /></clipPath><clipPath
       clipPathUnits="userSpaceOnUse"
       id="clipPath3943"><path
         d="m 50.6,278.8 h 494 v 244 h -494 z"
         id="path3941"
         inkscape:connector-curvature="0"
         style="clip-rule:evenodd" /></clipPath><clipPath
       clipPathUnits="userSpaceOnUse"
       id="clipPath3955"><path
         d="m 50.6,278.8 h 494 v 244 h -494 z"
         id="path3953"
         inkscape:connector-curvature="0"
         style="clip-rule:evenodd" /></clipPath><clipPath
       clipPathUnits="userSpaceOnUse"
       id="clipPath3967"><path
         d="m 50.6,278.8 h 494 v 244 h -494 z"
         id="path3965"
         inkscape:connector-curvature="0"
         style="clip-rule:evenodd" /></clipPath><clipPath
       clipPathUnits="userSpaceOnUse"
       id="clipPath3979"><path
         d="m 50.6,278.8 h 494 v 244 h -494 z"
         id="path3977"
         inkscape:connector-curvature="0"
         style="clip-rule:evenodd" /></clipPath><clipPath
       clipPathUnits="userSpaceOnUse"
       id="clipPath3991"><path
         d="m 50.6,278.8 h 494 v 244 h -494 z"
         id="path3989"
         inkscape:connector-curvature="0"
         style="clip-rule:evenodd" /></clipPath><clipPath
       clipPathUnits="userSpaceOnUse"
       id="clipPath4003"><path
         d="m 50.6,278.8 h 494 v 244 h -494 z"
         id="path4001"
         inkscape:connector-curvature="0"
         style="clip-rule:evenodd" /></clipPath><clipPath
       clipPathUnits="userSpaceOnUse"
       id="clipPath4015"><path
         d="m 50.6,278.8 h 494 v 244 h -494 z"
         id="path4013"
         inkscape:connector-curvature="0"
         style="clip-rule:evenodd" /></clipPath><clipPath
       clipPathUnits="userSpaceOnUse"
       id="clipPath4027"><path
         d="m 50.6,278.8 h 494 v 244 h -494 z"
         id="path4025"
         inkscape:connector-curvature="0"
         style="clip-rule:evenodd" /></clipPath><clipPath
       clipPathUnits="userSpaceOnUse"
       id="clipPath4041"><path
         d="m 50.6,278.8 h 494 v 244 h -494 z"
         id="path4039"
         inkscape:connector-curvature="0"
         style="clip-rule:evenodd" /></clipPath><clipPath
       clipPathUnits="userSpaceOnUse"
       id="clipPath4055"><path
         d="m 50.6,278.8 h 494 v 244 h -494 z"
         id="path4053"
         inkscape:connector-curvature="0"
         style="clip-rule:evenodd" /></clipPath><clipPath
       clipPathUnits="userSpaceOnUse"
       id="clipPath4067"><path
         d="M 50.2,278.4 H 545 V 523.2 H 50.2 Z"
         id="path4065"
         inkscape:connector-curvature="0"
         style="clip-rule:evenodd" /></clipPath></defs><sodipodi:namedview
     pagecolor="#ffffff"
     bordercolor="#666666"
     borderopacity="1"
     objecttolerance="10"
     gridtolerance="10"
     guidetolerance="10"
     inkscape:pageopacity="0"
     inkscape:pageshadow="2"
     inkscape:window-width="1920"
     inkscape:window-height="1005"
     id="namedview3715"
     showgrid="false"
     inkscape:zoom="0.72344973"
     inkscape:cx="396.79999"
     inkscape:cy="395.32809"
     inkscape:window-x="1911"
     inkscape:window-y="-9"
     inkscape:window-maximized="1"
     inkscape:current-layer="g3721" /><g
     id="g3721"
     inkscape:groupmode="layer"
     inkscape:label="Balkendiagramm"
     transform="matrix(1.3333333,0,0,-1.3333333,0,1122.4)"><path
       d="m 50.722,278.74 h 494 v 243.97 h -494 z"
       style="fill:#ffffff;fill-opacity:1;fill-rule:evenodd;stroke:none"
       id="path3723"
       inkscape:connector-curvature="0" /><path
       d="M 215.29,463.5 V 316.6 m 52.36,146.9 V 316.6 m 52.19,146.9 V 316.6 m 52.35,146.9 V 316.6 m 52.36,146.9 V 316.6 m 52.36,146.9 V 316.6 m 52.42,146.9 V 316.6"
       style="fill:none;stroke:#d9d9d9;stroke-width:0.65013999;stroke-linecap:butt;stroke-linejoin:round;stroke-miterlimit:10;stroke-dasharray:none;stroke-opacity:1"
       id="path3725"
       inkscape:connector-curvature="0" /><path
       d="m 224.14,321 h -61.28 v 4.86 h 61.28 z m -2.08,18.38 h -59.2 v 4.68 h 59.2 z m 20.45,18.38 h -79.65 v 4.68 h 79.65 z m -45.59,18.37 h -34.06 v 4.68 h 34.06 z m 95.7,18.21 H 162.86 v 4.85 h 129.76 z m 118.41,18.38 H 162.86 v 4.85 h 248.17 z m -98.99,18.37 H 162.86 v 4.86 h 149.18 z m -2.61,18.38 H 162.86 v 4.85 h 146.57 z"
       style="fill:#5b9bd5;fill-opacity:1;fill-rule:nonzero;stroke:none"
       id="path3727"
       inkscape:connector-curvature="0" /><path
       d="m 199.52,325.86 h -36.66 v 4.68 h 36.66 z m 12.48,18.2 h -49.14 v 4.85 H 212 Z m 1.56,18.38 h -50.7 v 4.85 h 50.7 z m 14.74,18.37 h -65.44 v 4.86 h 65.44 z m 15.77,18.38 h -81.21 v 4.86 h 81.21 z m 60.16,18.38 H 162.86 v 4.85 h 141.37 z m 104.72,18.38 H 162.86 v 4.85 h 246.09 z m 82.18,18.37 H 162.86 v 4.86 h 328.27 z"
       style="fill:#ffc000;fill-opacity:1;fill-rule:nonzero;stroke:none"
       id="path3729"
       inkscape:connector-curvature="0" /><path
       d="M 162.86,316.6 V 463.5"
       style="fill:none;stroke:#d9d9d9;stroke-width:0.65013999;stroke-linecap:butt;stroke-linejoin:round;stroke-miterlimit:10;stroke-dasharray:none;stroke-opacity:1"
       id="path3731"
       inkscape:connector-curvature="0" /><g
       id="g3733"><g
         id="g3735"
         clip-path="url(#clipPath3739)"><text
           transform="matrix(1,0,0,-1,160.95,304.9)"
           style="font-variant:normal;font-weight:normal;font-size:7.80000019px;font-family:'Times New Roman';-inkscape-font-specification:'Times New';writing-mode:lr-tb;fill:#000000;fill-opacity:1;fill-rule:nonzero;stroke:none"
           id="text3743"><tspan
             x="0"
             y="0"
             id="tspan3741">0</tspan></text>
</g></g><g
       id="g3745"><g
         id="g3747"
         clip-path="url(#clipPath3751)"><text
           transform="matrix(1,0,0,-1,209.42,304.9)"
           style="font-variant:normal;font-weight:normal;font-size:7.80000019px;font-family:'Times New Roman';-inkscape-font-specification:'Times New';writing-mode:lr-tb;fill:#000000;fill-opacity:1;fill-rule:nonzero;stroke:none"
           id="text3755"><tspan
             x="0 3.9935999 7.8155999"
             y="0"
             sodipodi:role="line"
             id="tspan3753">100</tspan></text>
</g></g><g
       id="g3757"><g
         id="g3759"
         clip-path="url(#clipPath3763)"><text
           transform="matrix(1,0,0,-1,261.8,304.9)"
           style="font-variant:normal;font-weight:normal;font-size:7.80000019px;font-family:'Times New Roman';-inkscape-font-specification:'Times New';writing-mode:lr-tb;fill:#000000;fill-opacity:1;fill-rule:nonzero;stroke:none"
           id="text3767"><tspan
             x="0 3.9935999 7.8155999"
             y="0"
             sodipodi:role="line"
             id="tspan3765">200</tspan></text>
</g></g><g
       id="g3769"><g
         id="g3771"
         clip-path="url(#clipPath3775)"><text
           transform="matrix(1,0,0,-1,314.17,304.9)"
           style="font-variant:normal;font-weight:normal;font-size:7.80000019px;font-family:'Times New Roman';-inkscape-font-specification:'Times New';writing-mode:lr-tb;fill:#000000;fill-opacity:1;fill-rule:nonzero;stroke:none"
           id="text3779"><tspan
             x="0 3.9702001 7.7922001"
             y="0"
             sodipodi:role="line"
             id="tspan3777">300</tspan></text>
</g></g><g
       id="g3781"><g
         id="g3783"
         clip-path="url(#clipPath3787)"><text
           transform="matrix(1,0,0,-1,366.55,304.9)"
           style="font-variant:normal;font-weight:normal;font-size:7.80000019px;font-family:'Times New Roman';-inkscape-font-specification:'Times New';writing-mode:lr-tb;fill:#000000;fill-opacity:1;fill-rule:nonzero;stroke:none"
           id="text3791"><tspan
             x="0 3.9702001 7.7687998"
             y="0"
             sodipodi:role="line"
             id="tspan3789">400</tspan></text>
</g></g><g
       id="g3793"><g
         id="g3795"
         clip-path="url(#clipPath3799)"><text
           transform="matrix(1,0,0,-1,418.92,304.9)"
           style="font-variant:normal;font-weight:normal;font-size:7.80000019px;font-family:'Times New Roman';-inkscape-font-specification:'Times New';writing-mode:lr-tb;fill:#000000;fill-opacity:1;fill-rule:nonzero;stroke:none"
           id="text3803"><tspan
             x="0 3.9702001 7.7687998"
             y="0"
             sodipodi:role="line"
             id="tspan3801">500</tspan></text>
</g></g><g
       id="g3805"><g
         id="g3807"
         clip-path="url(#clipPath3811)"><text
           transform="matrix(1,0,0,-1,471.3,304.9)"
           style="font-variant:normal;font-weight:normal;font-size:7.80000019px;font-family:'Times New Roman';-inkscape-font-specification:'Times New';writing-mode:lr-tb;fill:#000000;fill-opacity:1;fill-rule:nonzero;stroke:none"
           id="text3815"><tspan
             x="0 3.9702001 7.7687998"
             y="0"
             sodipodi:role="line"
             id="tspan3813">600</tspan></text>
</g></g><g
       id="g3817"><g
         id="g3819"
         clip-path="url(#clipPath3823)"><text
           transform="matrix(1,0,0,-1,523.65,304.9)"
           style="font-variant:normal;font-weight:normal;font-size:7.80000019px;font-family:'Times New Roman';-inkscape-font-specification:'Times New';writing-mode:lr-tb;fill:#000000;fill-opacity:1;fill-rule:nonzero;stroke:none"
           id="text3827"><tspan
             x="0 3.9935999 7.8155999"
             y="0"
             sodipodi:role="line"
             id="tspan3825">700</tspan></text>
</g></g><g
       id="g3829"><g
         id="g3831"
         clip-path="url(#clipPath3835)"><text
           transform="matrix(1,0,0,-1,119,323.25)"
           style="font-variant:normal;font-weight:normal;font-size:7.80000019px;font-family:'Times New Roman';-inkscape-font-specification:'Times New';writing-mode:lr-tb;fill:#000000;fill-opacity:1;fill-rule:nonzero;stroke:none"
           id="text3839"><tspan
             x="0 4.3368001 6.9341998 10.3974 14.2038 17.667 21.645 24.593399 26.832001 29.780399 33.243599"
             y="0"
             sodipodi:role="line"
             id="tspan3837">Französisch</tspan></text>
</g></g><g
       id="g3841"><g
         id="g3843"
         clip-path="url(#clipPath3847)"><text
           transform="matrix(1,0,0,-1,56.375,341.62)"
           style="font-variant:normal;font-weight:normal;font-size:7.80000019px;font-family:'Times New Roman';-inkscape-font-specification:'Times New';writing-mode:lr-tb;fill:#000000;fill-opacity:1;fill-rule:nonzero;stroke:none"
           id="text3851"><tspan
             x="0 5.7174001 7.7922001 10.0308 13.8294 17.292601 23.361 26.8242 28.875601 32.845798 36.308998 38.196602 42.533401 46.487999 49.0854 52.548599 55.9884 59.786999 65.504402 67.579201 70.699203 73.647598 77.110802 81.065399 84.013802 87.476997 91.431602 94.894798 97.492203"
             y="0"
             sodipodi:role="line"
             id="tspan3849">Allgemeine Sprachwissenschaft</tspan></text>
</g></g><g
       id="g3853"><g
         id="g3855"
         clip-path="url(#clipPath3859)"><text
           transform="matrix(1,0,0,-1,128.1,359.98)"
           style="font-variant:normal;font-weight:normal;font-size:7.80000019px;font-family:'Times New Roman';-inkscape-font-specification:'Times New';writing-mode:lr-tb;fill:#000000;fill-opacity:1;fill-rule:nonzero;stroke:none"
           id="text3863"><tspan
             x="0 4.3368001 8.2914 11.7546 15.5376 17.776199 20.7246 24.187799"
             y="0"
             sodipodi:role="line"
             id="tspan3861">Spanisch</tspan></text>
</g></g><g
       id="g3865"><g
         id="g3867"
         clip-path="url(#clipPath3871)"><text
           transform="matrix(1,0,0,-1,90.6,378.35)"
           style="font-variant:normal;font-weight:normal;font-size:7.80000019px;font-family:'Times New Roman';-inkscape-font-specification:'Times New';writing-mode:lr-tb;fill:#000000;fill-opacity:1;fill-rule:nonzero;stroke:none"
           id="text3875"><tspan
             x="0 5.7174001 9.5394001 11.778 13.8528 17.846399 20.2722 23.735399 27.736799 29.8116 33.805199 36.402599 40.232399 44.226002 48.048 50.286598 54.108601 58.1022 60.176998"
             y="0"
             sodipodi:role="line"
             id="tspan3873">Kulturanthropologie</tspan></text>
</g></g><g
       id="g3877"><g
         id="g3879"
         clip-path="url(#clipPath3883)"><text
           transform="matrix(1,0,0,-1,119.43,396.72)"
           style="font-variant:normal;font-weight:normal;font-size:7.80000019px;font-family:'Times New Roman';-inkscape-font-specification:'Times New';writing-mode:lr-tb;fill:#000000;fill-opacity:1;fill-rule:nonzero;stroke:none"
           id="text3887"><tspan
             x="0 4.3368001 8.2914 10.3662 12.6048 16.4034 19.523399 23.322001 27.2922 31.090799 33.329399"
             y="0"
             sodipodi:role="line"
             id="tspan3885">Philosophie</tspan></text>
</g></g><g
       id="g3889"><g
         id="g3891"
         clip-path="url(#clipPath3895)"><text
           transform="matrix(1,0,0,-1,121.6,415.08)"
           style="font-variant:normal;font-weight:normal;font-size:7.80000019px;font-family:'Times New Roman';-inkscape-font-specification:'Times New';writing-mode:lr-tb;fill:#000000;fill-opacity:1;fill-rule:nonzero;stroke:none"
           id="text3899"><tspan
             x="0 5.7174001 9.0167999 12.1368 15.6 19.437599 21.676201 25.1394 28.976999 31.215599"
             y="0"
             sodipodi:role="line"
             id="tspan3897">Geschichte</tspan></text>
</g></g><g
       id="g3901"><g
         id="g3903"
         clip-path="url(#clipPath3907)"><text
           transform="matrix(1,0,0,-1,91.45,433.45)"
           style="font-variant:normal;font-weight:normal;font-size:7.80000019px;font-family:'Times New Roman';-inkscape-font-specification:'Times New';writing-mode:lr-tb;fill:#000000;fill-opacity:1;fill-rule:nonzero;stroke:none"
           id="text3911"><tspan
             x="0 4.8671999 8.6892004 12.6828 14.781 17.0508 19.999201 23.4624 27.299999 30.763201 32.869202 37.206001 41.043598 43.3134 45.411598 49.405201 51.503399 55.497002 59.319 61.588799"
             y="0"
             sodipodi:role="line"
             id="tspan3909">Englische Philologie</tspan></text>
</g></g><g
       id="g3913"><g
         id="g3915"
         clip-path="url(#clipPath3919)"><text
           transform="matrix(1,0,0,-1,93.2,451.82)"
           style="font-variant:normal;font-weight:normal;font-size:7.80000019px;font-family:'Times New Roman';-inkscape-font-specification:'Times New';writing-mode:lr-tb;fill:#000000;fill-opacity:1;fill-rule:nonzero;stroke:none"
           id="text3923"><tspan
             x="0 5.7174001 9.0167999 12.987 15.0618 18.181801 21.645 25.482599 28.945801 31.0284 35.3652 39.179401 41.417999 43.492802 47.463001 49.5378 53.507999 57.330002 59.5686"
             y="0"
             sodipodi:role="line"
             id="tspan3921">Deutsche Philologie</tspan></text>
</g></g><g
       id="g3925"><g
         id="g3927"
         clip-path="url(#clipPath3931)"><text
           transform="matrix(1,0,0,-1,185.83,504.85)"
           style="font-variant:normal;font-weight:normal;font-size:12.125px;font-family:'Times New Roman';-inkscape-font-specification:'Times New';writing-mode:lr-tb;fill:#000000;fill-opacity:1;fill-rule:nonzero;stroke:none"
           id="text3935"><tspan
             x="0 10.221375 15.423 18.55125 23.93475 29.99725 35.198875 39.188 45.929501 52.028374 55.326374 58.454624 64.880875 70.264374"
             y="0"
             sodipodi:role="line"
             id="tspan3933">Welche PhilFak</tspan></text>
</g></g><g
       id="g3937"><g
         id="g3939"
         clip-path="url(#clipPath3943)"><text
           transform="matrix(1,0,0,-1,262.13,504.85)"
           style="font-variant:normal;font-weight:normal;font-size:12.125px;font-family:'Times New Roman';-inkscape-font-specification:'Times New';writing-mode:lr-tb;fill:#000000;fill-opacity:1;fill-rule:nonzero;stroke:none"
           id="text3947"><tspan
             x="0"
             y="0"
             id="tspan3945">-</tspan></text>
</g></g><g
       id="g3949"><g
         id="g3951"
         clip-path="url(#clipPath3955)"><text
           transform="matrix(1,0,0,-1,266.3,504.85)"
           style="font-variant:normal;font-weight:normal;font-size:12.125px;font-family:'Times New Roman';-inkscape-font-specification:'Times New';writing-mode:lr-tb;fill:#000000;fill-opacity:1;fill-rule:nonzero;stroke:none"
           id="text3959"><tspan
             x="0 6.42625 11.80975 17.193251 23.413376 28.615 32.591999 36.556873 45.396 50.597626 54.574623 60.637123 65.850876 71.913376 75.211372 78.509377 87.882004 91.167877 97.909378 103.81425 110.55575 115.7695 119.05537 125.11787 131.18037 137.26712"
             y="0"
             sodipodi:role="line"
             id="tspan3957">Fächer werden im SoSe 2018</tspan></text>
</g></g><g
       id="g3961"><g
         id="g3963"
         clip-path="url(#clipPath3967)"><text
           transform="matrix(1,0,0,-1,158.43,490.8)"
           style="font-variant:normal;font-weight:normal;font-size:12.125px;font-family:'Times New Roman';-inkscape-font-specification:'Times New';writing-mode:lr-tb;fill:#000000;fill-opacity:1;fill-rule:nonzero;stroke:none"
           id="text3971"><tspan
             x="0 6.0625 11.446 17.508499 23.570999 26.905375 31.585625 36.969124 42.352627 48.415127 51.53125 54.82925 60.212749 66.275253 69.742996 75.126503 78.242622 82.922874 86.390625 95.229752 100.61325 106.67575 112.73825 116.0605 120.19512 125.57863 130.96213 137.02463 139.97099 146.03349 151.41701 159.39525 162.51137 165.45775 170.84125 173.95738 178.63762 181.92349 190.76262 195.96425 202.02675 207.24049 213.30299 217.44975 222.83325 228.21675 234.27925 237.56512 242.24538 245.54338 251.60588 257.66837 260.99063 266.19226 270.16925 273.46725"
             y="0"
             sodipodi:role="line"
             id="tspan3969">hauptsächlich als Hauptfach bzw. als Nebenfach studiert?</tspan></text>
</g></g><g
       id="g3973"><g
         id="g3975"
         clip-path="url(#clipPath3979)"><text
           transform="matrix(1,0,0,-1,202.48,476.92)"
           style="font-variant:normal;font-weight:normal;font-size:12.125px;font-family:'Times New Roman';-inkscape-font-specification:'Times New';writing-mode:lr-tb;fill:#000000;fill-opacity:1;fill-rule:nonzero;stroke:none"
           id="text3983"><tspan
             x="0 4.0012498 11.9795 17.181126 20.479124 25.159374 31.221874 34.532001 39.915501 43.031624 49.094124 54.477627 58.624374 62.092125 67.293747 71.100998"
             y="0"
             sodipodi:role="line"
             id="tspan3981">(Beispielhafte 2</tspan></text>
</g></g><g
       id="g3985"><g
         id="g3987"
         clip-path="url(#clipPath3991)"><text
           transform="matrix(1,0,0,-1,279.65,476.92)"
           style="font-variant:normal;font-weight:normal;font-size:12.125px;font-family:'Times New Roman';-inkscape-font-specification:'Times New';writing-mode:lr-tb;fill:#000000;fill-opacity:1;fill-rule:nonzero;stroke:none"
           id="text3995"><tspan
             x="0"
             y="0"
             id="tspan3993">-</tspan></text>
</g></g><g
       id="g3997"><g
         id="g3999"
         clip-path="url(#clipPath4003)"><text
           transform="matrix(1,0,0,-1,283.65,476.92)"
           style="font-variant:normal;font-weight:normal;font-size:12.125px;font-family:'Times New Roman';-inkscape-font-specification:'Times New';writing-mode:lr-tb;fill:#000000;fill-opacity:1;fill-rule:nonzero;stroke:none"
           id="text4007"><tspan
             x="0 6.402 11.7855 17.169001"
             y="0"
             sodipodi:role="line"
             id="tspan4005">Fach</tspan></text>
</g></g><g
       id="g4009"><g
         id="g4011"
         clip-path="url(#clipPath4015)"><text
           transform="matrix(1,0,0,-1,306.88,476.92)"
           style="font-variant:normal;font-weight:normal;font-size:12.125px;font-family:'Times New Roman';-inkscape-font-specification:'Times New';writing-mode:lr-tb;fill:#000000;fill-opacity:1;fill-rule:nonzero;stroke:none"
           id="text4019"><tspan
             x="0"
             y="0"
             id="tspan4017">-</tspan></text>
</g></g><g
       id="g4021"><g
         id="g4023"
         clip-path="url(#clipPath4027)"><text
           transform="matrix(1,0,0,-1,310.88,476.92)"
           style="font-variant:normal;font-weight:normal;font-size:12.125px;font-family:'Times New Roman';-inkscape-font-specification:'Times New';writing-mode:lr-tb;fill:#000000;fill-opacity:1;fill-rule:nonzero;stroke:none"
           id="text4031"><tspan
             x="0 6.402 11.7855 17.169001 23.389126 28.772625 32.058498 38.120998 42.110126 45.893124 52.295124 57.678623 63.062126 69.124626 74.314125 78.291122"
             y="0"
             sodipodi:role="line"
             id="tspan4029">Fachelor Fächer)</tspan></text>
</g></g><path
       d="m 256.67,288.87 h 3.8872 v 3.8872 H 256.67 Z"
       style="fill:#ffc000;fill-opacity:1;fill-rule:evenodd;stroke:none"
       id="path4033"
       inkscape:connector-curvature="0" /><g
       id="g4035"><g
         id="g4037"
         clip-path="url(#clipPath4041)"><text
           transform="matrix(1,0,0,-1,262.27,288.27)"
           style="font-variant:normal;font-weight:normal;font-size:7.80000019px;font-family:'Times New Roman';-inkscape-font-specification:'Times New';writing-mode:lr-tb;fill:#000000;fill-opacity:1;fill-rule:nonzero;stroke:none"
           id="text4045"><tspan
             x="0 5.7174001 8.9933996 12.9636 16.762199 19.000799 21.5982 25.061399 28.5012"
             y="0"
             sodipodi:role="line"
             id="tspan4043">Hauptfach</tspan></text>
</g></g><path
       d="m 302.39,288.87 h 3.8872 v 3.8872 H 302.39 Z"
       style="fill:#5b9bd5;fill-opacity:1;fill-rule:evenodd;stroke:none"
       id="path4047"
       inkscape:connector-curvature="0" /><g
       id="g4049"><g
         id="g4051"
         clip-path="url(#clipPath4055)"><text
           transform="matrix(1,0,0,-1,308,288.27)"
           style="font-variant:normal;font-weight:normal;font-size:7.80000019px;font-family:'Times New Roman';-inkscape-font-specification:'Times New';writing-mode:lr-tb;fill:#000000;fill-opacity:1;fill-rule:nonzero;stroke:none"
           id="text4059"><tspan
             x="0 5.7174001 9.0167999 13.0104 16.4736 20.311199 22.9086 26.371799 29.850599"
             y="0"
             sodipodi:role="line"
             id="tspan4057">Nebenfach</tspan></text>
</g></g><g
       id="g4061"><g
         id="g4063"
         clip-path="url(#clipPath4067)"><path
           d="m 50.722,278.74 h 494 v 243.97 h -494 z"
           style="fill:none;stroke:#d9d9d9;stroke-width:0.65013999;stroke-linecap:butt;stroke-linejoin:round;stroke-miterlimit:10;stroke-dasharray:none;stroke-opacity:1"
           id="path4069"
           inkscape:connector-curvature="0" /></g></g></g></svg>